<svg xmlns="http://www.w3.org/2000/svg" width="293" height="71"><path d="M53.881 28.285c-.191.848.016 1.708-.179 2.516a40.322 40.322 0 0 1-1.8 6.53c-3.249 7.495-8.476 12.022-16.105 15.155a34.949 34.949 0 0 1-4.969 1.2c-.816.2-1.714.057-2.515.239a13.73 13.73 0 0 1-3.532-.12c-.958-.217-1.8-.068-2.694-.3a38.286 38.286 0 0 1-5.688-1.8A26.874 26.874 0 0 1 2.51 38.286a40.371 40.371 0 0 1-1.377-3.894c-.4-1.231-.571-2.683-.9-4.073l-.119-2.037a10.143 10.143 0 0 1 .06-3.534l.119-1.617a35.11 35.11 0 0 1 1.2-4.972C4.628 10.523 9.145 5.298 16.64 2.045A37.714 37.714 0 0 1 22.447.368l2.335-.3a3.852 3.852 0 0 0 .9-.06A26.492 26.492 0 0 1 42.326 4.86a26.785 26.785 0 0 1 9.579 11.921 37.25 37.25 0 0 1 1.437 4.373l.479 2.935v.659a10.137 10.137 0 0 1 .06 3.537zm-24.489 18.3c.272.378.794 1.461 1.256 1.555a5.489 5.489 0 0 1 1.256-.239 14.09 14.09 0 0 0 2.033-.658 8.514 8.514 0 0 0-1.256-.777c-.633-.443-1.231-.966-1.854-1.435q-.328-.36-.658-.718a2.183 2.183 0 0 1-.478-.359c-.639-.845-1.422-1.579-2.033-2.452a11.176 11.176 0 0 0-1.017-1.614 15.008 15.008 0 0 0 2.751 6.702zM27 33a6 6 0 1 0-6-6 6 6 0 0 0 6 6zm-7.176 14.188a5.147 5.147 0 0 1 1.076.359l2.333.538v-.059a4.629 4.629 0 0 1-.6-1.137 25.587 25.587 0 0 1-1.854-5.621l-.239-2.212a4.367 4.367 0 0 0-.06-1.017 14.574 14.574 0 0 1-.658 2.093 15.6 15.6 0 0 0 .002 7.056zm-8.013-5.262l1.614 1.435v-.837l.3-2.512a27.013 27.013 0 0 1 1.436-4.6 17.021 17.021 0 0 0 .9-2.033l-1.615 1.435c-1.32 1.742-2.934 3.66-3.528 6.1a4.229 4.229 0 0 1 .893 1.012zm-5.143-9.508a14.086 14.086 0 0 0 .658 2.033 14.6 14.6 0 0 0 1.256-1.914 18.376 18.376 0 0 1 4.245-4.126 7.122 7.122 0 0 1 1.794-1.2v-.06H14.5a3.442 3.442 0 0 1-.778.12c-.569.153-1.232.27-1.794.478a16.518 16.518 0 0 0-4.006 2.153c-.372.268-1.4.794-1.5 1.256a5.493 5.493 0 0 1 .246 1.26zm2.87-12.5a15.914 15.914 0 0 1-2.152.3c-.261 1.113-.689 2.254-.957 3.468h.06a4.607 4.607 0 0 1 1.136-.6 25.6 25.6 0 0 1 5.621-1.854L15.459 21a4.353 4.353 0 0 0 1.016-.06 13.523 13.523 0 0 1-2.093-.658 14.9 14.9 0 0 0-3.767-.419 4.672 4.672 0 0 1-1.077.057zm9.748-5.322a16.739 16.739 0 0 0-5.681-3.169c-.534.8-2.121 1.591-2.452 2.512h.777a5.848 5.848 0 0 0 1.376.12l2.093.359a29.2 29.2 0 0 1 3.707 1.2l2.034 1.016v-.06c-.719-.501-1.152-1.445-1.854-1.974zm6.1-5.143c-.559-.888-1.307-1.673-1.853-2.571h-.18a5.457 5.457 0 0 1-1.256.239 14.114 14.114 0 0 0-2.033.658 19.733 19.733 0 0 0 2.153 1.435 17.5 17.5 0 0 1 3.947 4.186 6.976 6.976 0 0 1 1.136 1.734h.06a15.156 15.156 0 0 0-1.975-5.679zm8.791-1.614a5.112 5.112 0 0 1-1.076-.359l-2.333-.538.957 1.794A28.663 28.663 0 0 1 33.04 12.8c.271 1 .18 2.112.418 3.169a4.365 4.365 0 0 0 .06 1.017 14.591 14.591 0 0 1 .658-2.093 15.6 15.6 0 0 0 0-7.053zM32.86 38.4a15.153 15.153 0 0 0 7.535 5.2c.534-.795 2.121-1.591 2.452-2.511H41.83a5.688 5.688 0 0 0-1.315-.12L38 40.491a31.271 31.271 0 0 1-3.408-1.2c-.57-.247-1.121-.691-1.732-.891zm4.665-4.306a7.872 7.872 0 0 1 1.435.478l2.332.478c1.738.4 3.713-.131 5.322-.239.2-.821.463-1.664.718-2.572a1.905 1.905 0 0 0 .179-.9 4.611 4.611 0 0 1-1.136.6 25.6 25.6 0 0 1-5.621 1.854l-2.213.239a4.352 4.352 0 0 0-1.016.06zm3.05-22.425A19.324 19.324 0 0 1 39.08 19.2l-1.2 2.452h.059c.5-.718 1.442-1.151 1.974-1.854a16.714 16.714 0 0 0 3.169-5.681c-.791-.532-1.582-2.117-2.507-2.45zm6.039 8.91a7.9 7.9 0 0 1-1.375 2.033 17.171 17.171 0 0 1-4.186 4.066 6.935 6.935 0 0 1-1.734 1.136v.06h.119a3.288 3.288 0 0 1 .778-.12c.529-.136 1.146-.226 1.674-.419a16.577 16.577 0 0 0 4.186-2.213 4.124 4.124 0 0 0 1.5-1.315c-.442-.723-.337-2.728-.962-3.23zM27 25a2 2 0 1 1-2 2 2 2 0 0 1 2-2zM70.03 2.977a1 1 0 0 0 1.08 1.188h1.907a.928.928 0 0 1 1.08 1.08v18a.928.928 0 0 1-1.08 1.08H71.11a1 1 0 0 0-1.08 1.188 1.075 1.075 0 0 0 1.08 1.332H80a1.032 1.032 0 0 0 1.08-1.224 1.046 1.046 0 0 0-1.08-1.3h-1.943a.928.928 0 0 1-1.08-1.08v-18a.928.928 0 0 1 1.08-1.08H80a1 1 0 0 0 1.08-1.188A1.075 1.075 0 0 0 80 1.645h-8.89a1.075 1.075 0 0 0-1.08 1.332zm22.2 5.867a.928.928 0 0 0-1.08 1.08v.288a.928.928 0 0 0 1.08 1.08h1.98c.252 0 .36.072.36.144a.3.3 0 0 1-.18.18 2.106 2.106 0 0 0-1.044 1.872v12.274a.928.928 0 0 0 1.08 1.08h.648a.928.928 0 0 0 1.08-1.08V13.848a2.15 2.15 0 0 1 2.195-2.2h2.52a2.151 2.151 0 0 1 2.2 2.2v11.914a.928.928 0 0 0 1.08 1.08h.648a.927.927 0 0 0 1.079-1.08V13.848s0-5-5-5h-8.639zm30.013 18.142c2.159 0 3.887-1.044 4.391-2.124a.3.3 0 0 1 .18-.18c.072 0 .144.108.144.36v.72a.928.928 0 0 0 1.08 1.08h.648a.928.928 0 0 0 1.08-1.08V2.005a.928.928 0 0 0-1.08-1.08h-.648a.928.928 0 0 0-1.08 1.08v8.639c0 .252-.072.36-.144.36a.3.3 0 0 1-.18-.18c-.5-1.08-2.232-2.124-4.391-2.124-5 0-5 5-5 5v8.279s-.003 5.007 5.001 5.007zm1.08-15.478a3.345 3.345 0 0 1 3.635 3.276V20.9a3.345 3.345 0 0 1-3.635 3.275c-3.276 0-3.276-2.2-3.276-2.2V13.7s.001-2.192 3.277-2.192zm18.292 10.331s0 5 5 5h7.919a.928.928 0 0 0 1.08-1.08v-.18a.928.928 0 0 0-1.08-1.08h-1.98c-.252 0-.36-.072-.36-.144a.3.3 0 0 1 .18-.18c1.08-.5 1.764-1.548 1.764-3.383V9.888a.928.928 0 0 0-1.08-1.08h-.648a.927.927 0 0 0-1.079 1.08v12.095a2.057 2.057 0 0 1-2.2 2.052h-2.52a2.151 2.151 0 0 1-2.2-2.2l.036-11.95a.927.927 0 0 0-1.079-1.08h-.648a.928.928 0 0 0-1.08 1.08zm24.732-.288c0 3.707 3.167 5.435 5.975 5.435 2.664 0 5.579-1.764 5.579-4.787 0-5.867-8.135-5.579-8.135-8.639a2.181 2.181 0 0 1 2.34-2.232c1.332 0 2.484 1.008 2.484 1.872v.36a.929.929 0 0 0 1.08 1.044h.576a.965.965 0 0 0 1.079-1.116v-.18c0-2.988-2.3-4.715-5.111-4.715-3.024 0-5.435 1.908-5.435 5.147 0 5.075 8.351 4.967 8.351 8.459 0 1.44-1.656 2.088-2.916 2.088-1.332 0-3.132-1.044-3.132-2.628V21.3A.929.929 0 0 0 168 20.255h-.576a.966.966 0 0 0-1.08 1.116v.18zm23.385-11.267a.928.928 0 0 0 1.08 1.08h1.044a.928.928 0 0 1 1.08 1.08v9.575a4.783 4.783 0 0 0 5 4.823h1.476a.928.928 0 0 0 1.08-1.08v-.648a.928.928 0 0 0-1.08-1.08h-1.472a2.123 2.123 0 0 1-2.195-2.088v-9.5a.927.927 0 0 1 1.079-1.08h2.556a.928.928 0 0 0 1.08-1.08v-.54a.928.928 0 0 0-1.08-1.08h-2.52a.881.881 0 0 1-1.008-1.08V3.8a.927.927 0 0 0-1.079-1.08h-.72a.952.952 0 0 0-1.116 1.08v3.78a.928.928 0 0 1-1.08 1.08h-1.044a.928.928 0 0 0-1.08 1.08v.54zM213.6 24.322a1 1 0 0 0-1.08 1.188 1.075 1.075 0 0 0 1.08 1.332h8.171a1.032 1.032 0 0 0 1.08-1.224 1.046 1.046 0 0 0-1.08-1.3h-2.195a.928.928 0 0 1-1.08-1.08v-8.455a3.255 3.255 0 0 1 3.527-3.276h1.836a.928.928 0 0 0 1.08-1.08V9.78a.928.928 0 0 0-1.08-1.08h-.759c-2.16 0-3.887 1.044-4.391 2.124a.3.3 0 0 1-.18.18c-.072 0-.144-.108-.144-.36v-.72a.928.928 0 0 0-1.08-1.08h-.648a.928.928 0 0 0-1.08 1.08l.036 13.318a.928.928 0 0 1-1.08 1.08h-.933zm23.88-14.146a1 1 0 0 0 1.08 1.188h1.908a.927.927 0 0 1 1.079 1.08v13.318a.928.928 0 0 0 1.08 1.08h.72a.928.928 0 0 0 1.08-1.08V9.924a.928.928 0 0 0-1.08-1.08h-4.787a1.075 1.075 0 0 0-1.08 1.332zm2.232-7.235a2.734 2.734 0 0 0 2.735 2.736 2.766 2.766 0 0 0 2.772-2.736 2.8 2.8 0 0 0-2.772-2.772 2.765 2.765 0 0 0-2.735 2.772zm23.072 24.045c2.16 0 3.887-1.044 4.391-2.124a.3.3 0 0 1 .18-.18c.072 0 .144.108.144.36v.72a.928.928 0 0 0 1.08 1.08h.648a.928.928 0 0 0 1.08-1.08V9.924a.928.928 0 0 0-1.08-1.08h-.648a.928.928 0 0 0-1.08 1.08v.72c0 .252-.072.36-.144.36a.3.3 0 0 1-.18-.18c-.5-1.08-2.231-2.124-4.391-2.124-5 0-5 5-5 5v8.279s-.003 5.007 5 5.007zm1.08-15.478a3.345 3.345 0 0 1 3.635 3.276V20.9a3.345 3.345 0 0 1-3.635 3.275c-3.276 0-3.276-2.2-3.276-2.2V13.7s0-2.192 3.276-2.192zm18.5-8.531a1 1 0 0 0 1.08 1.188h1.908a.927.927 0 0 1 1.079 1.08v18a.927.927 0 0 1-1.079 1.08h-1.908a1 1 0 0 0-1.08 1.188 1.075 1.075 0 0 0 1.08 1.332h8.891a1.031 1.031 0 0 0 1.079-1.224 1.045 1.045 0 0 0-1.079-1.3h-1.944a.928.928 0 0 1-1.08-1.08V2.977a1.075 1.075 0 0 0-1.08-1.332h-4.787a1.075 1.075 0 0 0-1.079 1.332zM70.03 38.645a.833.833 0 0 0-.972.972V62.87a.833.833 0 0 0 .972.972h5.651c3.06 0 7.307-1.26 7.307-7.523V46.168c0-6.263-4.247-7.523-7.307-7.523H70.03zm10.258 18c0 2.591-1.4 4.535-4.859 4.535h-2.52a1.023 1.023 0 0 1-1.187-1.188V42.5a1.023 1.023 0 0 1 1.187-1.188h2.52c3.456 0 4.859 1.943 4.859 4.535v10.8zm23.7-.252c2.268 0 3.24-.972 3.24-3.24v-2.3s0-5-5-5h-2.88c-5 0-5 5-5 5v7.991s0 5 5 5h6.083a.928.928 0 0 0 1.08-1.08v-.614a.928.928 0 0 0-1.08-1.08h-6.083a2.15 2.15 0 0 1-2.2-2.195v-1.4a.928.928 0 0 1 1.08-1.08h5.759zm-1.763-7.775a2.15 2.15 0 0 1 2.2 2.2v1.872a.928.928 0 0 1-1.08 1.08h-5.111a.928.928 0 0 1-1.08-1.08v-1.872a2.15 2.15 0 0 1 2.2-2.2h2.88zm16.2 9.934c0 3.708 3.168 5.436 5.975 5.436 2.664 0 5.579-1.764 5.579-4.788 0-5.867-8.134-5.579-8.134-8.638a2.181 2.181 0 0 1 2.339-2.232c1.332 0 2.484 1.008 2.484 1.872v.36a.929.929 0 0 0 1.08 1.043h.576a.966.966 0 0 0 1.08-1.115v-.18c0-2.988-2.3-4.716-5.112-4.716-3.023 0-5.435 1.908-5.435 5.148 0 5.075 8.351 4.967 8.351 8.458 0 1.44-1.656 2.088-2.916 2.088-1.332 0-3.131-1.044-3.131-2.627V58.3a.929.929 0 0 0-1.08-1.044h-.581a.966.966 0 0 0-1.08 1.116v.179zm23.76-11.374a1 1 0 0 0 1.08 1.188h1.907a.928.928 0 0 1 1.08 1.08v13.318a.928.928 0 0 0 1.08 1.08h.72a.928.928 0 0 0 1.08-1.08v-15.84a.928.928 0 0 0-1.08-1.08h-4.787a1.075 1.075 0 0 0-1.084 1.332zm2.232-7.235a2.734 2.734 0 0 0 2.735 2.736 2.766 2.766 0 0 0 2.772-2.736 2.8 2.8 0 0 0-2.772-2.772 2.765 2.765 0 0 0-2.739 2.77zm19.868 30.02a.928.928 0 0 0 1.08 1.08H170a4.817 4.817 0 0 0 5-4.859l-.036-15.694a2.106 2.106 0 0 0-1.044-1.872.3.3 0 0 1-.18-.18c0-.072.108-.144.36-.144h1.98a.928.928 0 0 0 1.08-1.08v-.288a.928.928 0 0 0-1.08-1.08h-8.6c-5 0-5 5-5 5v6.7s0 5 5 5c2.16 0 3.887-1.044 4.391-2.124a.3.3 0 0 1 .18-.18c.072 0 .144.108.144.36v5.436a2.118 2.118 0 0 1-2.2 2.195h-4.643a.928.928 0 0 0-1.08 1.08v.648zm4.284-10.223c-3.276 0-3.276-2.195-3.276-2.195v-6.7a2.15 2.15 0 0 1 2.2-2.195h2.483a2.181 2.181 0 0 1 2.2 2.195l.036 5.616a3.345 3.345 0 0 1-3.647 3.277zm19.581-13.894a.928.928 0 0 0-1.08 1.08v.288a.928.928 0 0 0 1.08 1.08h1.98c.252 0 .36.072.36.144a.3.3 0 0 1-.18.18 2.106 2.106 0 0 0-1.044 1.872v12.274a.928.928 0 0 0 1.08 1.08h.647a.928.928 0 0 0 1.08-1.08V50.847a2.15 2.15 0 0 1 2.2-2.195h2.52a2.15 2.15 0 0 1 2.2 2.195v11.915a.927.927 0 0 0 1.079 1.08h.648a.928.928 0 0 0 1.08-1.08V50.847s0-5-5-5h-8.639z" fill="#9ba6ab" fill-rule="evenodd"/></svg>